<mxfile host="app.diagrams.net" modified="2023-05-26T23:03:27.543Z" agent="Mozilla/5.0 (Windows NT 10.0; Win64; x64) AppleWebKit/537.36 (KHTML, like Gecko) Chrome/112.0.0.0 Safari/537.36 OPR/98.0.0.0" version="21.3.4" etag="gyYXo1_q8Qsd74SDNBtY" type="github">
  <diagram name="PÃ¡gina-1" id="vrW4v4RGU28Xbp9oXNxm">
    <mxGraphModel>
      <root>
        <mxCell id="0" />
        <mxCell id="1" parent="0" />
      </root>
    </mxGraphModel>
  </diagram>
</mxfile>
